<svg width="11" height="6.5" viewBox="0 0 12 7" fill="none" xmlns="http://www.w3.org/2000/svg">
<path fill-rule="evenodd" clip-rule="evenodd" d="M6 4.56839L2.09578 0.608699C1.78905 0.2971 1.28734 0.2971 0.980609 0.608699C0.67313 0.919534 0.67313 1.42866 0.980609 1.74025L5.43754 6.26114C5.43904 6.26267 5.43979 6.26496 5.44129 6.26649C5.59503 6.42268 5.79752 6.5 6 6.5C6.20248 6.5 6.40497 6.42268 6.55871 6.26649C6.56096 6.26496 6.56096 6.26267 6.56246 6.26113L11.0193 1.74025C11.3269 1.42866 11.3269 0.919533 11.0193 0.608699C10.7127 0.2971 10.2109 0.2971 9.90425 0.608699L6 4.56839Z" fill="white"/>
</svg>
